<?xml version="1.0" encoding="UTF-8"?>
<svg version="1.1" xmlns="http://www.w3.org/2000/svg" width="2000" height="2000">
<path d="M0 0 C660 0 1320 0 2000 0 C2000 660 2000 1320 2000 2000 C1340 2000 680 2000 0 2000 C0 1340 0 680 0 0 Z " fill="#FEFEFE" transform="translate(0,0)"/>
<path d="M0 0 C8.78361449 -0.01082563 17.56693522 -0.03556557 26.35044903 -0.07948428 C32.63427377 -0.10979082 38.91802094 -0.12446333 45.20191723 -0.1277644 C48.91373536 -0.13008494 52.6252553 -0.13865615 56.33699226 -0.16422558 C98.27349041 -0.43873955 98.27349041 -0.43873955 109.7571907 10.03925991 C113.93419661 14.44880016 116.11300998 18.54213293 117.83922195 24.28925991 C120.7877995 33.93667754 123.80585022 43.56138565 126.84703445 53.17988491 C127.33064854 54.71068909 127.81421874 56.24150712 128.29774857 57.77233791 C129.32224123 61.01552359 130.34702925 64.25861573 131.37205887 67.50163174 C132.9798077 72.58830707 134.58681275 77.6752172 136.19371414 82.7621603 C140.57236407 96.62308918 144.9524711 110.48355756 149.33285713 124.34393787 C151.20264177 130.26038042 153.07198672 136.17696182 154.9412117 142.0935812 C156.0619273 145.64037884 157.18322278 149.18699279 158.30455399 152.73359585 C161.5199088 162.90777534 164.72000007 173.08514724 167.83922195 183.28925991 C171.20475275 194.16241919 174.6415473 205.01347107 178.07310867 215.86592007 C179.06563266 219.00543347 180.05716294 222.14526013 181.04852676 225.28514004 C181.54916191 226.87064407 182.04986539 228.45612652 182.55066299 230.04157925 C183.73716315 233.79797115 184.92311366 237.55453158 186.1063118 241.31196499 C189.15615377 250.9917811 192.23082716 260.6635484 195.31578445 270.33222866 C206.57779314 305.63595954 217.71578934 340.97620928 228.73857498 376.35534573 C231.53120827 385.31405178 234.34628288 394.26546557 237.18104935 403.21092129 C238.40300967 407.06955548 239.62078771 410.92951118 240.83922195 414.78925991 C241.33920583 416.37259834 241.83920389 417.95593228 242.33922195 419.53925991 C251.33922196 448.03925992 251.33922196 448.03925992 252.0465889 450.27932644 C252.54801886 451.86714295 253.04949777 453.45494401 253.55104446 455.04272366 C254.73741274 458.79873557 255.92323295 462.55491554 257.1063118 466.31196499 C260.15615377 475.99178111 263.230828 485.66354813 266.31578445 495.33222866 C281.17265316 541.90511405 281.17265316 541.90511405 288.1712532 564.30097866 C288.38547424 564.98648045 288.59969528 565.67198223 288.82040787 566.3782568 C290.93437062 573.14494873 293.04397816 579.9129842 295.14725494 586.68300533 C299.09143227 599.37717667 303.06394418 612.0591492 307.2025032 624.69160366 C307.87067492 626.74250806 308.53872888 628.79345083 309.20665359 630.84443569 C310.41346901 634.54817578 311.64019164 638.24440077 312.87999344 641.93720913 C319.14832539 660.94100128 319.14832539 660.94100128 315.58922195 670.10175991 C315.01172195 671.15363491 314.43422195 672.20550991 313.83922195 673.28925991 C313.28234695 674.32050991 312.72547195 675.35175991 312.15172195 676.41425991 C306.26377353 683.73441201 297.41049263 686.57178973 288.2672863 687.57007122 C285.6768024 687.68545667 283.10141562 687.71452926 280.50841141 687.70576382 C279.535449 687.714369 278.56248659 687.72297419 277.56004047 687.73184013 C274.35745117 687.75684541 271.15518137 687.76133807 267.9525032 687.76582241 C265.67577128 687.77989517 263.39904748 687.79534148 261.12233353 687.8120718 C256.29846432 687.84494733 251.47466636 687.86907846 246.65071487 687.88597012 C239.1158692 687.91246181 231.58122083 687.95795135 224.04649734 688.00776577 C221.53403101 688.02424493 219.02156458 688.0407092 216.50909805 688.05715847 C215.27166666 688.06528875 214.03423527 688.07341904 212.75930595 688.08179569 C209.02510281 688.10562664 205.29089279 688.12753099 201.55667496 688.14892483 C183.89855726 688.2522319 166.24519246 688.46180637 148.58980179 688.78269863 C41.61709568 690.72015398 41.61709568 690.72015398 26.4837532 677.89472866 C21.31988121 672.85351396 17.1708501 668.53194426 16.58385086 661.02217007 C16.57788895 659.80320034 16.57192703 658.58423061 16.56578445 657.32832241 C16.54545644 655.95461692 16.52460506 654.5809191 16.50328445 653.20722866 C16.48096271 651.0774429 16.46431617 648.94796478 16.45836258 646.8180685 C16.39415057 633.14412168 14.15405761 620.81980532 8.02672195 608.41425991 C7.51286942 607.34957485 7.51286942 607.34957485 6.98863602 606.263381 C3.54979042 599.34924122 -0.48426248 592.48488311 -7.16077805 588.28925991 C-9.88665519 587.84807608 -9.88665519 587.84807608 -12.91877365 587.92849636 C-14.09383972 587.92437237 -15.26890579 587.92024837 -16.47957993 587.91599941 C-17.76495148 587.92678524 -19.05032303 587.93757107 -20.37464523 587.94868374 C-21.74467576 587.94953015 -23.11470766 587.9490546 -24.4847374 587.94735622 C-28.20144343 587.94649537 -31.9178591 587.9641355 -35.63449764 587.9850781 C-39.51956524 588.00382997 -43.40463946 588.00559416 -47.28974533 588.00915432 C-54.64557274 588.01847918 -62.00126641 588.04309888 -69.35703492 588.07320279 C-77.73179831 588.10673311 -86.10656809 588.12322936 -94.48138189 588.13828909 C-111.70792464 588.16964809 -128.9343372 588.22241711 -146.16077805 588.28925991 C-146.33122352 589.03211868 -146.50166899 589.77497746 -146.67727947 590.5403471 C-147.45914632 593.94548002 -148.24244659 597.3502817 -149.02576828 600.75508022 C-149.29384041 601.92354488 -149.56191254 603.09200954 -149.83810806 604.29588223 C-151.82341845 612.91863551 -153.95268157 621.4869538 -156.22327805 630.03925991 C-158.87208013 640.08870556 -161.38185863 650.15079084 -163.43836594 660.34101772 C-165.47200564 669.91356155 -168.97412616 676.66900153 -177.16077805 682.28925991 C-191.04475049 690.44707423 -210.30467726 689.73755946 -225.88734055 689.76582241 C-227.7317017 689.78021596 -229.57605254 689.79598698 -231.42039108 689.8130331 C-236.23749831 689.85442786 -241.05454183 689.87968363 -245.87177658 689.900527 C-253.501687 689.93648473 -261.13147003 689.99765431 -268.76123047 690.05676746 C-270.63811594 690.0711462 -272.51500564 690.08498145 -274.39189911 690.09827518 C-289.10383022 690.20415093 -303.7939006 690.54981382 -318.49720383 691.04414272 C-333.76356638 691.55246527 -349.03878937 691.76132106 -364.31190109 691.95844936 C-365.31682366 691.97147044 -365.31682366 691.97147044 -366.34204769 691.98475456 C-369.04307506 692.01959371 -371.74410128 692.05436243 -374.44515419 692.0871706 C-382.60154847 692.18672222 -390.75188431 692.34756289 -398.90491867 692.60220242 C-403.24908359 692.73168563 -407.59351061 692.82237783 -411.93879318 692.90495205 C-413.9395044 692.95229676 -415.93988712 693.01726651 -417.93940353 693.10105801 C-433.01055099 693.72176672 -433.01055099 693.72176672 -438.20277023 690.26264858 C-440.53078467 687.73135288 -442.34252173 685.20207372 -444.16077805 682.28925991 C-445.17948248 681.03590748 -446.21163948 679.79325697 -447.26234055 678.56660366 C-448.10912124 677.45760235 -448.95049572 676.34444721 -449.78577805 675.22675991 C-450.23050461 674.67955288 -450.67523117 674.13234585 -451.1334343 673.56855679 C-453.56413713 670.2935444 -454.46753626 668.04556371 -454.10609055 663.93769741 C-453.28224882 659.16354976 -451.89594629 654.58082774 -450.41077805 649.97675991 C-448.30034688 643.20571439 -446.38430649 636.43422573 -444.72327805 629.53925991 C-442.16637512 619.00102566 -439.10427912 608.62898649 -436.02503586 598.23359585 C-434.68184648 593.6576456 -433.39316484 589.06655668 -432.09827805 584.47675991 C-429.9852817 577.01467194 -427.70937183 569.61819065 -425.33802414 562.23457241 C-423.67249181 557.01278587 -422.15519708 551.76700297 -420.72327805 546.47675991 C-418.67654559 538.92433381 -416.36670069 531.47519054 -413.92274094 524.04194546 C-412.25629997 518.91965994 -410.7223948 513.77244155 -409.2682457 508.58673 C-405.21004692 494.13315028 -400.66215576 479.8396383 -396.09088135 465.54239178 C-395.40076829 463.38293807 -394.71185885 461.22310376 -394.02329636 459.06315517 C-385.87285836 433.49935854 -377.56845688 407.98748967 -369.18394089 382.49948025 C-367.05547402 376.02544269 -364.94121462 369.5470439 -362.8443718 363.06269741 C-355.35304879 339.90562205 -347.70146815 316.8029516 -340.00931931 293.71194744 C-339.18173306 291.22717591 -338.35466464 288.74223257 -337.52772141 286.25724697 C-331.25542221 267.41286509 -324.91603167 248.5930365 -318.48347473 229.80274105 C-313.7094926 215.85549899 -308.97943001 201.89392411 -304.27796555 187.92207241 C-303.77805414 186.43648893 -303.77805414 186.43648893 -303.26804352 184.92089367 C-301.20964845 178.80305333 -299.1524898 172.68479768 -297.09560013 166.56645107 C-293.83262006 156.86148541 -290.56728332 147.15731243 -287.30140305 137.45332241 C-286.76854879 135.86993195 -286.76854879 135.86993195 -286.22492981 134.25455379 C-281.81911819 121.16410489 -277.40200429 108.07761373 -272.95765305 95.00019741 C-272.6156241 93.99346257 -272.6156241 93.99346257 -272.26668549 92.96638966 C-269.98047583 86.23739418 -267.69047413 79.50970475 -265.39564133 72.78364468 C-262.09368138 63.08764227 -258.83666349 53.38639413 -255.79359055 43.60566616 C-255.41232513 42.38857464 -255.41232513 42.38857464 -255.02335739 41.14689541 C-253.90678592 37.57781746 -252.80691485 34.00627193 -251.7530632 30.41816616 C-249.178051 22.06554834 -245.62991131 15.13922004 -240.16077805 8.28925991 C-239.38638382 7.25884579 -238.61198959 6.22843166 -237.81412888 5.16679287 C-234.02270757 1.45290762 -230.28362908 1.56099937 -225.16439438 1.49038601 C-223.36943779 1.51107395 -223.36943779 1.51107395 -221.53821945 1.53217983 C-219.62892403 1.51864468 -219.62892403 1.51864468 -217.68105698 1.50483608 C-214.18884329 1.48065979 -210.69760227 1.49316582 -207.20539141 1.51189876 C-203.50711909 1.52510279 -199.80904918 1.50339918 -196.11082077 1.48538113 C-189.06475546 1.45614524 -182.01902666 1.45657147 -174.97292268 1.46830493 C-166.34277335 1.48158579 -157.7127725 1.46201652 -149.08265305 1.43965054 C-146.78426807 1.43384418 -144.48588301 1.4280697 -142.18749791 1.42231137 C-140.66789113 1.41848789 -139.1482845 1.41460458 -137.62867802 1.41066068 C-133.07934906 1.39915189 -128.53002979 1.39123759 -123.98068947 1.38598603 C-108.38475892 1.36723041 -92.80114603 1.28678009 -77.2115593 0.79707241 C-51.48334208 -0.00153667 -25.73849697 0.03136587 0 0 Z " fill="#FEFEFE" transform="translate(718.1607780456543,657.7107400894165)"/>
<path d="M0 0 C1.16305664 0.10715332 2.32611328 0.21430664 3.52441406 0.32470703 C17.49386158 1.63470027 31.19768965 3.49168939 44.89697266 6.53564453 C46.80631339 6.95723335 48.72128164 7.35313082 50.63671875 7.74609375 C54.10089073 8.4582406 57.5498236 9.22296674 61 10 C61.67804688 10.14453613 62.35609375 10.28907227 63.0546875 10.43798828 C94.69373822 17.24291756 136.91590088 30.40579768 158.46118164 55.71655273 C163.50567828 61.62018655 168.97290174 67.05107852 174.5 72.5 C180.56809399 78.48226522 186.52825515 84.46219307 192 91 C192.6803833 91.81259277 192.6803833 91.81259277 193.37451172 92.64160156 C217.33050607 121.70712283 233.68827479 154.04050747 236.65625 192.03515625 C236.89630886 194.80401693 237.23053038 197.24348883 237.78125 199.93359375 C238.57870636 205.8500163 238.716073 209.64992571 235.17480469 214.49951172 C230.51828527 219.7895779 225.39891792 224.54855056 220.0847168 229.16918945 C218.01892759 230.89156253 218.01892759 230.89156253 216.56347656 232.70410156 C214.27187412 234.6035122 212.49489998 234.48001944 209.53515625 234.62109375 C208.26172363 234.68538574 206.98829102 234.74967773 205.67626953 234.81591797 C204.11751922 234.87743581 202.55876215 234.93878279 201 235 C199.14564885 235.08563107 197.29132097 235.17176713 195.43701172 235.25830078 C188.10573055 235.58390111 180.77233637 235.83391885 173.4375 236.0625 C172.73719036 236.08442287 172.03688072 236.10634575 171.31534958 236.12893295 C136.84867846 237.18966599 102.36671413 237.25707918 67.88673776 237.30148584 C62.58746035 237.30875433 57.28823573 237.32336985 51.98898315 237.34085083 C45.42648141 237.36202108 38.86408347 237.37094619 32.30154824 237.3653115 C28.89597213 237.36249033 25.49056271 237.36401803 22.08501053 237.37802887 C-16.33664379 237.50524679 -16.33664379 237.50524679 -30.5168457 225.5078125 C-33.18802413 222.79222436 -34.81324338 219.54060113 -36.5625 216.1875 C-37.34313725 214.76008139 -38.12438052 213.33299403 -38.90625 211.90625 C-40.09195404 209.70662237 -41.25815176 207.5009066 -42.40625 205.28125 C-44.6873805 201.15055423 -46.74604609 198.78564097 -51.51171875 197.39453125 C-66.47216643 195.02246655 -87.79558849 197.74160172 -100.5 206.8125 C-101.325 207.534375 -102.15 208.25625 -103 209 C-103.08079448 212.3125735 -102.61787918 214.34628096 -100.31640625 216.78125 C-91.30499351 224.10603469 -80.84365017 227.61942801 -69.75 230.5625 C-68.73292969 230.84029297 -67.71585938 231.11808594 -66.66796875 231.40429688 C-63.44823686 232.28075706 -60.22429398 233.1404901 -57 234 C-55.93370361 234.2899585 -54.86740723 234.57991699 -53.76879883 234.87866211 C-40.15092996 238.56216034 -26.44391715 241.89835005 -12.75073242 245.28833008 C-1.14503105 248.16342595 10.4427713 251.05908451 21.94920349 254.31140137 C28.55430454 256.1746706 35.20636515 257.81739232 41.875 259.4375 C53.37210121 262.28642083 64.73536522 265.33687274 76 269 C77.17546387 269.38140137 78.35092773 269.76280273 79.56201172 270.15576172 C97.84037456 276.12204592 115.59560539 282.77034224 133 291 C133.76683105 291.3619043 134.53366211 291.72380859 135.32373047 292.09667969 C139.93798815 294.2959496 144.4817533 296.61045537 149 299 C150.05960938 299.55373291 150.05960938 299.55373291 151.140625 300.11865234 C166.95371481 308.42950921 181.46860939 318.3166957 195 330 C195.87269531 330.75023437 196.74539063 331.50046875 197.64453125 332.2734375 C202.87384255 336.867705 207.60978784 341.60219817 212 347 C212.40863281 347.49628906 212.81726562 347.99257813 213.23828125 348.50390625 C229.61121071 368.46283755 241.42783703 391.12755632 248.1875 416.0625 C248.42549316 416.91658447 248.66348633 417.77066895 248.90869141 418.65063477 C253.33216947 435.77262571 254.4840293 453.1924296 254.33618164 470.80639648 C254.31237095 473.82888186 254.31568478 476.85048974 254.32226562 479.87304688 C254.27186866 516.14704806 246.01660485 551.39216729 230 584 C229.53907959 584.95640381 229.53907959 584.95640381 229.06884766 585.93212891 C221.97351962 600.51634517 212.6951859 613.69023611 201.47265625 625.38671875 C199.6931723 627.26740557 198.04032121 629.13098802 196.40625 631.12890625 C193.25985114 634.88313217 189.73417763 637.85046634 186 641 C185.19304688 641.71800781 184.38609375 642.43601562 183.5546875 643.17578125 C157.58145608 665.7821123 126.31140867 681.42129719 93.875 692.25 C92.74902908 692.62620483 92.74902908 692.62620483 91.60031128 693.01000977 C74.15530371 698.80538607 56.6824455 703.54146544 38.625 707 C37.7489209 707.16953186 36.8728418 707.33906372 35.97021484 707.51373291 C11.08417633 712.30912942 -13.91061852 715.97310398 -39.2109375 717.640625 C-42.86414338 717.88607531 -46.38992748 718.37928602 -50 719 C-52.69112724 719.22495491 -55.36730575 719.41716943 -58.0625 719.5625 C-59.21649292 719.6251001 -59.21649292 719.6251001 -60.39379883 719.68896484 C-66.65800559 719.99581892 -72.91621446 720.10673251 -79.1875 720.125 C-80.49569702 720.13188843 -80.49569702 720.13188843 -81.83032227 720.13891602 C-86.66514956 720.12722979 -91.20974907 719.70948044 -96 719 C-100.43381093 718.63393662 -104.87327039 718.35439861 -109.3125 718.0625 C-119.46431937 717.36298149 -129.56420031 716.53849395 -139.66210938 715.28417969 C-142.27813306 714.96619185 -144.89654431 714.67451957 -147.515625 714.3828125 C-211.9150644 707.02957517 -288.5655542 686.06681474 -332 634 C-333.14082031 632.69095703 -333.14082031 632.69095703 -334.3046875 631.35546875 C-358.99317242 602.62914751 -373.36573192 567.7764875 -381 531 C-381.16274414 530.22833496 -381.32548828 529.45666992 -381.49316406 528.66162109 C-383.19294776 520.46190858 -384.3061132 512.29444705 -384.875 503.9375 C-384.93655273 503.1638208 -384.99810547 502.3901416 -385.06152344 501.59301758 C-385.4064191 495.01648436 -384.21081855 489.69925521 -379.984375 484.5390625 C-378.87835937 483.59160156 -378.87835937 483.59160156 -377.75 482.625 C-377.02296875 481.97789062 -376.2959375 481.33078125 -375.546875 480.6640625 C-370.18745069 477.16235275 -364.48906451 476.71326138 -358.23974609 476.82006836 C-357.49720707 476.82411997 -356.75466805 476.82817158 -355.98962784 476.83234596 C-354.38421374 476.84199668 -352.77882147 476.85611764 -351.17348099 476.87426949 C-346.79124145 476.92299267 -342.40881537 476.93666836 -338.02636719 476.95654297 C-337.11581636 476.96162778 -336.20526554 476.96671259 -335.26712227 476.97195148 C-325.64823594 477.02079467 -316.03219731 476.93092727 -306.4140625 476.81640625 C-305.13474476 476.8015172 -305.13474476 476.8015172 -303.82958221 476.78632736 C-299.49850146 476.73561495 -295.16745456 476.6826532 -290.83642578 476.62768555 C-287.35142419 476.58355712 -283.86640766 476.54192916 -280.38134766 476.50268555 C-263.11937251 476.30828368 -245.86683996 476.07001375 -228.61328125 475.484375 C-210.75289056 474.88963831 -192.89512887 474.7437911 -175.02563477 474.70483398 C-171.34220593 474.69582724 -167.65913652 474.67455019 -163.97583008 474.64331055 C-159.43140689 474.60479028 -154.88730615 474.58606912 -150.34272575 474.58155251 C-148.64002148 474.57672899 -146.93732075 474.56523854 -145.2347126 474.54651451 C-133.14537646 474.42121956 -123.01524115 475.17667946 -113.859375 483.9296875 C-107.08512121 491.47244908 -103.20145387 500.55942149 -99.37133789 509.83081055 C-96.22242543 517.23035696 -92.48107861 523.40806213 -84.9375 526.875 C-83.71353516 527.45894531 -83.71353516 527.45894531 -82.46484375 528.0546875 C-71.15746299 532.3912741 -54.97553717 531.42707985 -43.8046875 527.3359375 C-35.74415199 523.49651808 -28.89966644 518.64507179 -25.25 510.3125 C-23.41462563 504.86789781 -22.48918774 499.17613941 -25.03125 493.83203125 C-45.99772905 463.72183773 -104.51219579 457.63309398 -137.53311157 451.67782593 C-141.71107922 450.93138599 -145.89140743 450.20030703 -150.07470703 449.484375 C-166.70220086 446.62950001 -182.86616778 443.03189076 -198.9375 437.875 C-199.68668701 437.6366745 -200.43587402 437.398349 -201.20776367 437.15280151 C-262.81499069 417.52797114 -330.63702928 389.4931904 -362 329 C-366.77381978 319.35855176 -370.40184723 309.412612 -373.3125 299.0625 C-373.54291992 298.25466064 -373.77333984 297.44682129 -374.01074219 296.61450195 C-378.32481072 280.28787473 -379.49533266 263.90678026 -379.39111328 247.08203125 C-379.37501126 244.00215398 -379.39107847 240.92358832 -379.41015625 237.84375 C-379.42344778 224.9700996 -378.3258322 212.65609006 -376 200 C-375.85526749 199.19031769 -375.71053497 198.38063538 -375.56141663 197.54641724 C-369.48629128 163.72249517 -354.90207676 132.20190429 -334 105 C-333.38511719 104.18015625 -332.77023437 103.3603125 -332.13671875 102.515625 C-320.20414127 87.22338979 -305.81726947 74.14442488 -290 63 C-289.38624512 62.56284668 -288.77249023 62.12569336 -288.14013672 61.67529297 C-208.09637158 5.07803348 -102.28896645 -8.8159164 0 0 Z M-115.3125 13.75 C-116.05325775 13.83581329 -116.7940155 13.92162659 -117.55722046 14.01004028 C-130.25803313 15.49442332 -142.74438787 17.5862332 -155.2265625 20.38964844 C-157.86348673 20.96995747 -160.50520211 21.49650994 -163.15625 22.0078125 C-204.93263661 30.35831811 -247.51077013 48.05517941 -282 73 C-282.60231445 73.4340918 -283.20462891 73.86818359 -283.82519531 74.31542969 C-292.07322997 80.32029432 -299.63025614 86.9652445 -307 94 C-307.85335938 94.80050781 -308.70671875 95.60101562 -309.5859375 96.42578125 C-348.73610039 134.15567009 -366.14311839 189.31787302 -367.40698242 242.52319336 C-367.77377085 284.31066515 -356.57947153 325.56664204 -326.95703125 356.046875 C-289.03828806 394.17525027 -234.82852115 414.7273666 -184 429 C-183.34395782 429.1866925 -182.68791565 429.37338501 -182.01199341 429.56573486 C-170.12611611 432.92364871 -158.22713696 435.36444071 -146.04922485 437.39526367 C-119.0682509 441.91832373 -92.80855823 447.70006548 -66.74462891 456.12963867 C-64.11388625 456.96388503 -61.47182305 457.73872403 -58.8203125 458.50390625 C-42.97720992 463.23097846 -23.73705974 471.63875004 -14.66015625 486.140625 C-10.46866627 494.1954456 -9.66103017 502.44164233 -11.80078125 511.32421875 C-15.55324002 522.22053372 -22.14243774 530.12179278 -32.24609375 535.6875 C-49.10566159 543.72269829 -67.47752827 546.05269815 -85.49609375 540.1875 C-96.73284878 536.08274931 -103.49939662 530.70547539 -109 520 C-110.95206586 515.78569394 -112.84004856 511.54353864 -114.62890625 507.25732422 C-118.02610264 499.30295123 -122.15609569 491.81027857 -130.22940063 487.92790222 C-133.45982995 486.84599822 -136.04881893 486.74918706 -139.45629883 486.75195312 C-140.1089163 486.75061371 -140.76153378 486.74927429 -141.43392754 486.74789429 C-143.67097326 486.74766879 -145.90755629 486.76389544 -148.14453125 486.78125 C-149.80174239 486.78760108 -151.4589537 486.7939062 -153.11616516 486.8001709 C-183.52223978 486.96997238 -213.93057781 487.91298636 -244.32704556 488.66384983 C-253.10174842 488.88048175 -261.87659108 489.09020845 -270.65162134 489.29314804 C-272.8168797 489.34357907 -274.98210811 489.39516952 -277.14733505 489.44692993 C-292.86904382 489.81949395 -308.57688453 490.05110523 -324.30322266 489.953125 C-325.69748438 489.9457007 -327.09174637 489.93832761 -328.48600864 489.93100739 C-335.02786941 489.89364597 -341.56832017 489.82902795 -348.10954285 489.72497559 C-350.42043598 489.70350837 -352.73133366 489.6825242 -355.04223633 489.66210938 C-356.08671495 489.63669067 -357.13119358 489.61127197 -358.20732307 489.58508301 C-363.95701039 489.54915915 -363.95701039 489.54915915 -369.12236023 491.89611816 C-371.53373928 494.59805102 -372.01082463 495.35635072 -371.94921875 499.01953125 C-369.22639504 538.48015552 -357.82595482 578.89475585 -334 611 C-333.22914062 612.06476562 -332.45828125 613.12953125 -331.6640625 614.2265625 C-312.63502593 639.86564695 -287.59532537 657.53721183 -259 671 C-258.35981934 671.30147949 -257.71963867 671.60295898 -257.06005859 671.91357422 C-239.35353985 680.15324136 -220.81979678 685.9091928 -202 691 C-201.21254395 691.21897949 -200.42508789 691.43795898 -199.61376953 691.66357422 C-168.38257264 700.31453062 -134.4737607 704.85034038 -102.05859375 705.82421875 C-99.23976349 705.91355503 -96.48942864 706.16048692 -93.69140625 706.51171875 C-88.29362928 707.14876677 -82.92965305 707.15028868 -77.5 707.125 C-76.44192139 707.12161621 -75.38384277 707.11823242 -74.29370117 707.11474609 C-65.49683901 707.0573767 -56.76645008 706.71803687 -48 706 C-47.25379395 705.94086426 -46.50758789 705.88172852 -45.73876953 705.82080078 C11.82711494 701.13977604 72.9122531 692.21377756 125 666 C126.04897461 665.48953125 126.04897461 665.48953125 127.11914062 664.96875 C143.42731368 657.01795095 159.32443025 646.94705908 173 635 C174.16402344 633.99839844 174.16402344 633.99839844 175.3515625 632.9765625 C200.96080277 610.4566909 217.64705462 584.49858254 229.12890625 552.42919922 C229.66092813 550.94556197 230.20068183 549.46463182 230.75390625 547.98876953 C238.09793394 528.34349545 241.09080071 505.29797986 241.203125 484.390625 C241.21018463 483.50954575 241.21724426 482.62846649 241.22451782 481.72068787 C241.60878516 455.19582555 241.60878516 455.19582555 238 429 C237.80132324 428.10700195 237.60264648 427.21400391 237.39794922 426.29394531 C230.66798223 397.20637264 217.58872268 371.67929708 197 350 C196.32928467 349.2884375 196.32928467 349.2884375 195.64501953 348.5625 C188.34226383 340.86113868 180.64031221 334.15814998 172 328 C171.44538086 327.60103516 170.89076172 327.20207031 170.31933594 326.79101562 C132.93503618 300.15228912 86.41294923 282.74222854 41.78125 272.8515625 C33.89563586 271.07567006 26.11471593 268.87288397 18.33203125 266.6953125 C6.37092906 263.36678608 -5.6503507 260.36733727 -17.72463989 257.48361206 C-27.14954574 255.2282355 -36.5041841 252.82205885 -45.80053711 250.078125 C-51.54110368 248.38934987 -57.30961681 246.90769864 -63.125 245.5 C-104.00381896 235.44216171 -104.00381896 235.44216171 -114.5 219.625 C-116.96327379 213.67208834 -116.92502512 209.2740201 -114.5 203.3125 C-106.24075019 190.89494733 -89.08818677 187.7473568 -75.48828125 184.953125 C-62.57568411 182.54891069 -50.48972777 183.29541828 -38.52685547 189.22607422 C-35.48238256 191.36338244 -34.45736792 193.2373392 -32.80078125 196.55078125 C-32.23037109 197.64197266 -31.65996094 198.73316406 -31.07226562 199.85742188 C-29.90783792 202.14362898 -28.7540029 204.43526512 -27.61132812 206.73242188 C-22.92871792 215.62153331 -18.24028229 220.06303878 -8.61343384 223.05117798 C-2.94201964 224.42977613 2.72076697 224.27112645 8.52661133 224.24291992 C9.76568741 224.24481827 11.00476349 224.24671661 12.28138733 224.24867249 C15.67221394 224.25173568 19.06279504 224.24587335 22.45359254 224.23571944 C26.05293735 224.22684014 29.65227916 224.22869874 33.25163269 224.2290802 C39.33192095 224.22814353 45.41215937 224.21948379 51.49243164 224.20581055 C57.64315785 224.19202464 63.7938382 224.18478154 69.94458008 224.18530273 C102.07227976 224.18778629 134.18136725 224.10462523 166.29818821 223.15960884 C172.83052092 222.97903445 179.36183896 222.93722342 185.89652157 222.93843746 C202.43838292 223.17503579 202.43838292 223.17503579 216.80175781 215.93603516 C221.00227653 211.62708199 224.25912682 207.95770458 224.40234375 201.71484375 C224.30172162 200.14072993 224.16541732 198.56862877 224 197 C223.92700684 196.1236792 223.85401367 195.2473584 223.77880859 194.34448242 C221.9649821 174.71860651 218.26108808 156.479385 209 139 C208.66484375 138.35466309 208.3296875 137.70932617 207.984375 137.04443359 C202.55368958 126.66179388 196.19040428 117.23862917 189 108 C188.27167969 107.05769531 187.54335937 106.11539063 186.79296875 105.14453125 C181.05053367 97.93186233 174.82899887 91.19371609 168.43652344 84.55957031 C166.6273965 82.65908065 164.83915718 80.74668397 163.06347656 78.81542969 C147.25794002 61.65970266 132.89204942 49.00471503 111 40 C109.90945313 39.53513184 108.81890625 39.07026367 107.6953125 38.59130859 C92.18027355 32.024596 76.30170969 27.18068047 60 23 C58.58192275 22.62019654 57.16394184 22.24003303 55.74609375 21.859375 C21.06932318 13.04146765 -14.68214279 10.72916353 -50.3125 10.75 C-51.42699524 10.75059418 -52.54149048 10.75118835 -53.6897583 10.75180054 C-74.30446545 10.79382015 -94.8284422 11.32440735 -115.3125 13.75 Z " fill="#050505" transform="translate(1481,641)"/>
<path d="M0 0 C8.78361449 -0.01082563 17.56693522 -0.03556557 26.35044903 -0.07948428 C32.63427377 -0.10979082 38.91802094 -0.12446333 45.20191723 -0.1277644 C48.91373536 -0.13008494 52.6252553 -0.13865615 56.33699226 -0.16422558 C98.27349041 -0.43873955 98.27349041 -0.43873955 109.7571907 10.03925991 C113.93419661 14.44880016 116.11300998 18.54213293 117.83922195 24.28925991 C120.7877995 33.93667754 123.80585022 43.56138565 126.84703445 53.17988491 C127.33064854 54.71068909 127.81421874 56.24150712 128.29774857 57.77233791 C129.32224123 61.01552359 130.34702925 64.25861573 131.37205887 67.50163174 C132.9798077 72.58830707 134.58681275 77.6752172 136.19371414 82.7621603 C140.57236407 96.62308918 144.9524711 110.48355756 149.33285713 124.34393787 C151.20264177 130.26038042 153.07198672 136.17696182 154.9412117 142.0935812 C156.0619273 145.64037884 157.18322278 149.18699279 158.30455399 152.73359585 C161.5199088 162.90777534 164.72000007 173.08514724 167.83922195 183.28925991 C171.20475275 194.16241919 174.6415473 205.01347107 178.07310867 215.86592007 C179.06563266 219.00543347 180.05716294 222.14526013 181.04852676 225.28514004 C181.54916191 226.87064407 182.04986539 228.45612652 182.55066299 230.04157925 C183.73716315 233.79797115 184.92311366 237.55453158 186.1063118 241.31196499 C189.15615377 250.9917811 192.23082716 260.6635484 195.31578445 270.33222866 C206.57779314 305.63595954 217.71578934 340.97620928 228.73857498 376.35534573 C231.53120827 385.31405178 234.34628288 394.26546557 237.18104935 403.21092129 C238.40300967 407.06955548 239.62078771 410.92951118 240.83922195 414.78925991 C241.33920583 416.37259834 241.83920389 417.95593228 242.33922195 419.53925991 C251.33922196 448.03925992 251.33922196 448.03925992 252.0465889 450.27932644 C252.54801886 451.86714295 253.04949777 453.45494401 253.55104446 455.04272366 C254.73741274 458.79873557 255.92323295 462.55491554 257.1063118 466.31196499 C260.15615377 475.99178111 263.230828 485.66354813 266.31578445 495.33222866 C281.17265316 541.90511405 281.17265316 541.90511405 288.1712532 564.30097866 C288.38547424 564.98648045 288.59969528 565.67198223 288.82040787 566.3782568 C290.93437062 573.14494873 293.04397816 579.9129842 295.14725494 586.68300533 C299.09143227 599.37717667 303.06394418 612.0591492 307.2025032 624.69160366 C307.87067492 626.74250806 308.53872888 628.79345083 309.20665359 630.84443569 C310.41346901 634.54817578 311.64019164 638.24440077 312.87999344 641.93720913 C319.14832539 660.94100128 319.14832539 660.94100128 315.58922195 670.10175991 C315.01172195 671.15363491 314.43422195 672.20550991 313.83922195 673.28925991 C313.28234695 674.32050991 312.72547195 675.35175991 312.15172195 676.41425991 C306.26377353 683.73441201 297.41049263 686.57178973 288.2672863 687.57007122 C285.6768024 687.68545667 283.10141562 687.71452926 280.50841141 687.70576382 C279.535449 687.714369 278.56248659 687.72297419 277.56004047 687.73184013 C274.35745117 687.75684541 271.15518137 687.76133807 267.9525032 687.76582241 C265.67577128 687.77989517 263.39904748 687.79534148 261.12233353 687.8120718 C256.29846432 687.84494733 251.47466636 687.86907846 246.65071487 687.88597012 C239.1158692 687.91246181 231.58122083 687.95795135 224.04649734 688.00776577 C221.53403101 688.02424493 219.02156458 688.0407092 216.50909805 688.05715847 C215.27166666 688.06528875 214.03423527 688.07341904 212.75930595 688.08179569 C209.02510281 688.10562664 205.29089279 688.12753099 201.55667496 688.14892483 C183.89855726 688.2522319 166.24519246 688.46180637 148.58980179 688.78269863 C41.61709568 690.72015398 41.61709568 690.72015398 26.4837532 677.89472866 C21.31988121 672.85351396 17.1708501 668.53194426 16.58385086 661.02217007 C16.57788895 659.80320034 16.57192703 658.58423061 16.56578445 657.32832241 C16.54545644 655.95461692 16.52460506 654.5809191 16.50328445 653.20722866 C16.48096271 651.0774429 16.46431617 648.94796478 16.45836258 646.8180685 C16.39415057 633.14412168 14.15405761 620.81980532 8.02672195 608.41425991 C7.51286942 607.34957485 7.51286942 607.34957485 6.98863602 606.263381 C3.54979042 599.34924122 -0.48426248 592.48488311 -7.16077805 588.28925991 C-9.88665519 587.84807608 -9.88665519 587.84807608 -12.91877365 587.92849636 C-14.09383972 587.92437237 -15.26890579 587.92024837 -16.47957993 587.91599941 C-17.76495148 587.92678524 -19.05032303 587.93757107 -20.37464523 587.94868374 C-21.74467576 587.94953015 -23.11470766 587.9490546 -24.4847374 587.94735622 C-28.20144343 587.94649537 -31.9178591 587.9641355 -35.63449764 587.9850781 C-39.51956524 588.00382997 -43.40463946 588.00559416 -47.28974533 588.00915432 C-54.64557274 588.01847918 -62.00126641 588.04309888 -69.35703492 588.07320279 C-77.73179831 588.10673311 -86.10656809 588.12322936 -94.48138189 588.13828909 C-111.70792464 588.16964809 -128.9343372 588.22241711 -146.16077805 588.28925991 C-146.33122352 589.03211868 -146.50166899 589.77497746 -146.67727947 590.5403471 C-147.45914632 593.94548002 -148.24244659 597.3502817 -149.02576828 600.75508022 C-149.29384041 601.92354488 -149.56191254 603.09200954 -149.83810806 604.29588223 C-151.82341845 612.91863551 -153.95268157 621.4869538 -156.22327805 630.03925991 C-158.87208013 640.08870556 -161.38185863 650.15079084 -163.43836594 660.34101772 C-165.47200564 669.91356155 -168.97412616 676.66900153 -177.16077805 682.28925991 C-191.04475049 690.44707423 -210.30467726 689.73755946 -225.88734055 689.76582241 C-227.7317017 689.78021596 -229.57605254 689.79598698 -231.42039108 689.8130331 C-236.23749831 689.85442786 -241.05454183 689.87968363 -245.87177658 689.900527 C-253.501687 689.93648473 -261.13147003 689.99765431 -268.76123047 690.05676746 C-270.63811594 690.0711462 -272.51500564 690.08498145 -274.39189911 690.09827518 C-289.10383022 690.20415093 -303.7939006 690.54981382 -318.49720383 691.04414272 C-333.76356638 691.55246527 -349.03878937 691.76132106 -364.31190109 691.95844936 C-365.31682366 691.97147044 -365.31682366 691.97147044 -366.34204769 691.98475456 C-369.04307506 692.01959371 -371.74410128 692.05436243 -374.44515419 692.0871706 C-382.60154847 692.18672222 -390.75188431 692.34756289 -398.90491867 692.60220242 C-403.24908359 692.73168563 -407.59351061 692.82237783 -411.93879318 692.90495205 C-413.9395044 692.95229676 -415.93988712 693.01726651 -417.93940353 693.10105801 C-433.01055099 693.72176672 -433.01055099 693.72176672 -438.20277023 690.26264858 C-440.53078467 687.73135288 -442.34252173 685.20207372 -444.16077805 682.28925991 C-445.17948248 681.03590748 -446.21163948 679.79325697 -447.26234055 678.56660366 C-448.10912124 677.45760235 -448.95049572 676.34444721 -449.78577805 675.22675991 C-450.23050461 674.67955288 -450.67523117 674.13234585 -451.1334343 673.56855679 C-453.56413713 670.2935444 -454.46753626 668.04556371 -454.10609055 663.93769741 C-453.28224882 659.16354976 -451.89594629 654.58082774 -450.41077805 649.97675991 C-448.30034688 643.20571439 -446.38430649 636.43422573 -444.72327805 629.53925991 C-442.16637512 619.00102566 -439.10427912 608.62898649 -436.02503586 598.23359585 C-434.68184648 593.6576456 -433.39316484 589.06655668 -432.09827805 584.47675991 C-429.9852817 577.01467194 -427.70937183 569.61819065 -425.33802414 562.23457241 C-423.67249181 557.01278587 -422.15519708 551.76700297 -420.72327805 546.47675991 C-418.67654559 538.92433381 -416.36670069 531.47519054 -413.92274094 524.04194546 C-412.25629997 518.91965994 -410.7223948 513.77244155 -409.2682457 508.58673 C-405.21004692 494.13315028 -400.66215576 479.8396383 -396.09088135 465.54239178 C-395.40076829 463.38293807 -394.71185885 461.22310376 -394.02329636 459.06315517 C-385.87285836 433.49935854 -377.56845688 407.98748967 -369.18394089 382.49948025 C-367.05547402 376.02544269 -364.94121462 369.5470439 -362.8443718 363.06269741 C-355.35304879 339.90562205 -347.70146815 316.8029516 -340.00931931 293.71194744 C-339.18173306 291.22717591 -338.35466464 288.74223257 -337.52772141 286.25724697 C-331.25542221 267.41286509 -324.91603167 248.5930365 -318.48347473 229.80274105 C-313.7094926 215.85549899 -308.97943001 201.89392411 -304.27796555 187.92207241 C-303.77805414 186.43648893 -303.77805414 186.43648893 -303.26804352 184.92089367 C-301.20964845 178.80305333 -299.1524898 172.68479768 -297.09560013 166.56645107 C-293.83262006 156.86148541 -290.56728332 147.15731243 -287.30140305 137.45332241 C-286.76854879 135.86993195 -286.76854879 135.86993195 -286.22492981 134.25455379 C-281.81911819 121.16410489 -277.40200429 108.07761373 -272.95765305 95.00019741 C-272.6156241 93.99346257 -272.6156241 93.99346257 -272.26668549 92.96638966 C-269.98047583 86.23739418 -267.69047413 79.50970475 -265.39564133 72.78364468 C-262.09368138 63.08764227 -258.83666349 53.38639413 -255.79359055 43.60566616 C-255.41232513 42.38857464 -255.41232513 42.38857464 -255.02335739 41.14689541 C-253.90678592 37.57781746 -252.80691485 34.00627193 -251.7530632 30.41816616 C-249.178051 22.06554834 -245.62991131 15.13922004 -240.16077805 8.28925991 C-239.38638382 7.25884579 -238.61198959 6.22843166 -237.81412888 5.16679287 C-234.02270757 1.45290762 -230.28362908 1.56099937 -225.16439438 1.49038601 C-223.36943779 1.51107395 -223.36943779 1.51107395 -221.53821945 1.53217983 C-219.62892403 1.51864468 -219.62892403 1.51864468 -217.68105698 1.50483608 C-214.18884329 1.48065979 -210.69760227 1.49316582 -207.20539141 1.51189876 C-203.50711909 1.52510279 -199.80904918 1.50339918 -196.11082077 1.48538113 C-189.06475546 1.45614524 -182.01902666 1.45657147 -174.97292268 1.46830493 C-166.34277335 1.48158579 -157.7127725 1.46201652 -149.08265305 1.43965054 C-146.78426807 1.43384418 -144.48588301 1.4280697 -142.18749791 1.42231137 C-140.66789113 1.41848789 -139.1482845 1.41460458 -137.62867802 1.41066068 C-133.07934906 1.39915189 -128.53002979 1.39123759 -123.98068947 1.38598603 C-108.38475892 1.36723041 -92.80114603 1.28678009 -77.2115593 0.79707241 C-51.48334208 -0.00153667 -25.73849697 0.03136587 0 0 Z M-102.01254082 13.8766737 C-116.85380577 14.24611099 -131.67926933 14.32479273 -146.52492714 14.26622486 C-153.57305164 14.242369 -160.62123121 14.24438133 -167.66939068 14.24429512 C-173.64969303 14.24146353 -179.62896913 14.21917926 -185.60902023 14.16255093 C-191.54690616 14.10751744 -197.48308932 14.10078717 -203.42115021 14.127244 C-205.64829586 14.12847211 -207.87552835 14.11217392 -210.10240173 14.07732868 C-213.17742125 14.03146695 -216.24634691 14.04749278 -219.32142258 14.07807827 C-220.66899391 14.03581867 -220.66899391 14.03581867 -222.04378891 13.99270535 C-225.99763183 14.09031469 -228.2592772 14.43150666 -231.18106747 17.2115097 C-235.52700166 23.0405874 -238.0274283 29.36353332 -240.22156906 36.2387228 C-240.57073883 37.28623211 -240.9199086 38.33374142 -241.27965927 39.41299343 C-242.42365866 42.85768066 -243.54411836 46.30954238 -244.6646843 49.76191616 C-245.47160292 52.20580933 -246.28005961 54.64919513 -247.08996201 57.0921011 C-249.0047196 62.87909987 -250.90498633 68.67066331 -252.7978639 74.46484989 C-255.10699637 81.531058 -257.43508847 88.59097553 -259.76429367 95.65058804 C-260.59464468 98.16788034 -261.42496199 100.68518377 -262.25524521 103.20249844 C-262.66353498 104.44031693 -263.07182476 105.67813541 -263.49248695 106.95346355 C-264.72919702 110.70552257 -265.96373094 114.45829169 -267.19778061 118.21122646 C-273.20454022 136.46792163 -279.36570155 154.66695561 -285.61026382 172.84339142 C-288.97339645 182.64159275 -292.28503949 192.4571573 -295.5943718 202.27363491 C-296.07174191 203.68958352 -296.07174191 203.68958352 -296.55875587 205.13413715 C-298.55836732 211.06658741 -300.55611583 216.99966347 -302.5529213 222.93305874 C-303.61686766 226.09449758 -304.68108843 229.25584397 -305.74531174 232.4171896 C-317.74369029 268.06438936 -329.67783893 303.73293947 -341.5762642 339.41360497 C-342.87949139 343.32164844 -344.18311326 347.22955993 -345.48708194 351.13735604 C-347.75504644 357.93411896 -350.02127984 364.73145672 -352.28562737 371.52942562 C-353.03999832 373.79356946 -353.79483964 376.05755665 -354.55019569 378.32137203 C-359.57465716 393.3761009 -359.57465716 393.3761009 -364.31605148 408.52149868 C-365.7419984 413.1936385 -367.27622036 417.82975324 -368.8053093 422.46894741 C-369.48962416 424.55486192 -370.17386657 426.64080021 -370.85804367 428.72675991 C-371.90988758 431.92922942 -372.96247683 435.1314493 -374.01649094 438.33320522 C-378.34486814 451.48853673 -382.5378867 464.67231592 -386.53748703 477.93134975 C-388.01628717 482.82970093 -389.53384231 487.71484107 -391.07484055 492.59394741 C-391.30195221 493.31335506 -391.52906387 494.03276272 -391.76305771 494.7739706 C-392.66326503 497.622014 -393.56541494 500.46943833 -394.46839523 503.31660366 C-397.43794051 512.68698047 -400.3049765 522.07990694 -403.0577507 531.51631069 C-404.14205092 535.22520302 -405.2531405 538.92478464 -406.37708664 542.62177944 C-408.87925536 550.85537986 -411.242888 559.12005806 -413.53577805 567.41425991 C-415.94591056 576.13210341 -418.52108692 584.78267104 -421.22327805 593.41425991 C-424.04902773 602.45773616 -426.60218132 611.52906698 -428.93348312 620.71162319 C-431.28521044 629.92756994 -433.94876839 639.04415829 -436.64515305 648.16425991 C-437.03694748 649.49130947 -437.03694748 649.49130947 -437.43665695 650.84516811 C-437.8879414 652.36836724 -438.34273179 653.89053749 -438.80286789 655.41108608 C-440.14568953 659.92251641 -440.56192788 662.69660211 -439.16077805 667.28925991 C-436.18900411 671.60711088 -432.86655022 675.58348773 -429.16077805 679.28925991 C-426.73890198 679.48254953 -424.4319421 679.55163119 -422.00941086 679.53217983 C-421.27036514 679.53407818 -420.53131943 679.53597652 -419.76987839 679.5379324 C-417.30111484 679.54166246 -414.83264108 679.53086969 -412.36390305 679.51972866 C-410.61933552 679.51853355 -408.87476735 679.5180844 -407.13019943 679.51834011 C-403.4411334 679.51676931 -399.75216354 679.50846082 -396.0631218 679.49507046 C-391.45817217 679.47852442 -386.8533315 679.4743386 -382.24835587 679.47488117 C-363.62565207 679.47436753 -345.01205313 679.32115151 -326.39515305 678.84004116 C-325.23761395 678.81109296 -325.23761395 678.81109296 -324.05669022 678.78155994 C-316.64108007 678.59120597 -309.25575573 678.32275469 -301.85682297 677.76801968 C-293.43105287 677.17169392 -285.02431072 677.12235702 -276.58143425 677.09002972 C-273.71515336 677.07800986 -270.84900825 677.05850813 -267.98278427 677.03691006 C-259.84481541 676.97603332 -251.70686915 676.92134773 -243.56873703 676.88789272 C-238.55866386 676.86676288 -233.5488551 676.83133361 -228.53893471 676.78713512 C-226.65146077 676.77313941 -224.76394026 676.76429062 -222.87641716 676.76108074 C-199.90223979 677.09685486 -199.90223979 677.09685486 -179.5487175 667.95356655 C-177.83360116 665.8969354 -177.38913302 664.26041445 -176.7662468 661.66035366 C-176.53631027 660.72183559 -176.30637375 659.78331753 -176.06946945 658.81635952 C-175.83147629 657.79679165 -175.59348312 656.77722378 -175.34827805 655.72675991 C-174.9603508 654.12296474 -174.9603508 654.12296474 -174.56458664 652.48676968 C-172.48930084 643.85315335 -170.52283543 635.1936341 -168.5631218 626.53315639 C-167.15193624 620.36335392 -165.64798418 614.22646694 -164.0396843 608.10566616 C-163.76731949 607.06677494 -163.76731949 607.06677494 -163.48945236 606.00689602 C-162.6005616 602.62441952 -161.70161916 599.24503243 -160.78821945 595.86909389 C-160.46128098 594.63618618 -160.1343425 593.40327847 -159.7974968 592.13300991 C-159.50576584 591.052131 -159.21403488 589.9712521 -158.91346359 588.85761929 C-158.28660621 585.88579069 -157.8996048 583.08107591 -157.6137352 580.06623745 C-157.52771451 579.17031132 -157.44169382 578.27438519 -157.35306644 577.35130978 C-157.28961127 576.67083332 -157.2261561 575.99035686 -157.16077805 575.28925991 C-137.08931375 575.27969845 -117.01816812 575.30434508 -96.94680405 575.36953831 C-87.62695597 575.39901527 -78.30733568 575.41736513 -68.9874382 575.4093771 C-60.86267706 575.4024418 -52.73826855 575.41652993 -44.61359406 575.45569599 C-40.31288387 575.47569838 -36.01272718 575.48528617 -31.71198654 575.46968365 C-27.66021501 575.4553169 -23.60949916 575.46915359 -19.55786324 575.50421238 C-18.07446483 575.51215207 -16.59097058 575.50996807 -15.1076107 575.49665165 C-7.4198956 575.43349865 -1.56956111 575.39147239 4.32840347 580.71096516 C4.82697357 581.23180243 5.32554367 581.75263969 5.83922195 582.28925991 C6.63741096 583.0732878 6.63741096 583.0732878 7.45172501 583.87315464 C17.4146592 594.04151114 22.7190081 608.95676 26.83922195 622.28925991 C27.04676102 622.95796108 27.25430008 623.62666225 27.4681282 624.3156271 C29.59912306 632.32952798 29.14785368 640.77365875 29.06920242 649.0109396 C28.73064296 658.35662336 28.73064296 658.35662336 32.51890945 666.57441616 C45.77214399 678.78340888 69.31866326 676.58859538 86.08922195 676.47675991 C88.32172367 676.46905695 90.55422709 676.4618369 92.78673172 676.45503139 C101.13775154 676.4222575 109.48843589 676.35750524 117.83922195 676.28925991 C118.71074654 676.28222546 119.58227112 676.275191 120.48020554 676.26794338 C149.89759217 676.02975914 179.31410975 675.72434602 208.73054981 675.390481 C216.40463549 675.30394564 224.07878084 675.22530515 231.75297832 675.14942932 C238.40150798 675.0832363 245.04993657 675.0102226 251.69832325 674.93095207 C255.45260786 674.88629872 259.20686379 674.84448519 262.96126175 674.81053066 C267.02882495 674.77354456 271.09606103 674.72164777 275.1634407 674.66816616 C276.33050552 674.65978725 277.49757034 674.65140835 278.70000076 674.64277554 C288.12389994 674.49751447 296.00858034 674.29066756 302.83922195 667.28925991 C305.05330643 660.64700648 303.4401206 655.2102918 301.15172195 648.91425991 C300.59184331 647.30969149 300.03460809 645.70419858 299.47984695 644.09785366 C299.06122391 642.88911587 299.06122391 642.88911587 298.63414383 641.65595913 C297.44860043 638.1262731 296.42045348 634.55747105 295.40172195 630.97675991 C293.54995757 624.52021916 291.49082597 618.15190149 289.33922195 611.78925991 C286.98030413 604.81334184 284.77970656 597.82135279 282.75328445 590.74238491 C281.10194202 585.03774741 279.24145676 579.41467223 277.33922195 573.78925991 C274.98031245 566.8133395 272.77970658 559.82135286 270.75328445 552.74238491 C269.10193751 547.03773183 267.24113833 541.41478938 265.33922195 535.78925991 C263.05646785 529.02716215 260.89116857 522.2560594 258.9205513 515.39689541 C256.9744233 508.65975522 254.90446628 501.96238845 252.82359695 495.26582241 C252.63025143 494.64316116 252.4369059 494.02049992 252.23770142 493.37897015 C247.61311615 478.49268173 242.88137912 463.6407425 238.14257431 448.79050732 C236.06018887 442.26341768 233.98086963 435.73535024 231.90172195 429.20722866 C231.56528608 428.15103423 231.56528608 428.15103423 231.22205353 427.07350254 C227.38597088 415.0288276 223.58784389 402.97258595 219.81749344 390.90717983 C217.01857364 381.95607128 214.12353413 373.04449844 211.11705399 364.16108608 C209.17500544 358.39352143 207.42700538 352.58791176 205.75181961 346.73799038 C204.10139261 341.03468406 202.2406389 335.41331217 200.33922195 329.78925991 C198.05646785 323.02716215 195.89116857 316.2560594 193.9205513 309.39689541 C191.9744233 302.65975522 189.90446628 295.96238845 187.82359695 289.26582241 C187.63025143 288.64316116 187.4369059 288.02049992 187.23770142 287.37897015 C182.61311615 272.49268173 177.88137912 257.6407425 173.14257431 242.79050732 C171.06018887 236.26341768 168.98086963 229.73535024 166.90172195 223.20722866 C166.67743137 222.50309904 166.45314079 221.79896942 166.22205353 221.07350254 C162.38597088 209.0288276 158.58784389 196.97258595 154.81749344 184.90717983 C152.01857364 175.95607128 149.12353413 167.04449844 146.11705399 158.16108608 C144.17500544 152.39352143 142.42700538 146.58791176 140.75181961 140.73799038 C139.10139714 135.0346997 137.24095723 129.41319499 135.33922195 123.78925991 C132.98031245 116.8133395 130.77970658 109.82135286 128.75328445 102.74238491 C127.10193757 97.03773205 125.24114486 91.41478729 123.33922195 85.78925991 C121.02450441 78.93268786 118.83242168 72.06476595 116.82799149 65.11152554 C114.86437657 58.3145195 112.79454351 51.55136899 110.71422195 44.78925991 C110.37721268 43.69073696 110.0402034 42.59221401 109.69298172 41.46040249 C108.22477798 36.69464441 106.7454676 31.93236445 105.2103157 27.18769741 C104.87664993 26.15394985 104.87664993 26.15394985 104.53624344 25.0993185 C103.02332563 21.17050147 100.77222015 18.91903369 97.33922195 16.60175991 C87.60142873 12.95008745 77.29618673 13.00148424 67.02598953 13.04633999 C65.57664784 13.04526389 64.12730658 13.04332038 62.67796707 13.04058743 C58.76431226 13.03577212 54.850773 13.04336626 50.93713212 13.05354047 C46.77873927 13.06244021 42.62034883 13.06056082 38.46194839 13.06017971 C31.442098 13.06111516 24.42229089 13.06976036 17.40245438 13.08344936 C10.30153418 13.09725062 3.20065379 13.10447822 -3.90028 13.10395718 C-52.96048323 13.08041871 -52.96048323 13.08041871 -102.01254082 13.8766737 Z " fill="#050505" transform="translate(718.1607780456543,657.7107400894165)"/>
<path d="M0 0 C1.32 0.33 2.64 0.66 4 1 C4.22550537 2.03777588 4.45101074 3.07555176 4.68334961 4.14477539 C8.90627758 23.56036192 13.18408297 42.95984774 17.6875 62.3125 C20.47258285 74.28180435 23.16084309 86.26222068 25.69213867 98.28833008 C27.83382444 108.38903268 30.16065522 118.44370551 32.5 128.5 C35.34713337 140.73915852 38.1033141 152.98806303 40.69140625 165.28515625 C42.65306009 174.53601563 44.76797578 183.74769374 46.90921021 192.95822144 C49.84885308 205.60556454 52.78040543 218.25442183 55.5625 230.9375 C55.93955078 232.61392578 55.93955078 232.61392578 56.32421875 234.32421875 C57.55153112 239.99524834 58.46206094 245.1941038 58 251 C51.97256832 258.23291802 40.17386421 259.82104461 31.375 261.125 C30.42882812 261.28097656 29.48265625 261.43695312 28.5078125 261.59765625 C8.85702659 264.6460474 -11.27526591 265.69965247 -31.13208008 266.19458008 C-33.61042106 266.27398563 -36.08781036 266.39095637 -38.56274414 266.54321289 C-58.47846778 267.73922348 -58.47846778 267.73922348 -64.2567749 263.24456787 C-69.66654975 257.10202771 -73.78759524 248.59839856 -73.4140625 240.26171875 C-72.83300781 237.72021484 -72.83300781 237.72021484 -72 235 C-71.46586185 232.61074055 -70.93203372 230.22141178 -70.3984375 227.83203125 C-69.91178869 225.85157919 -69.41045185 223.87528345 -68.90649414 221.89916992 C-67.97866726 218.25647983 -67.07937579 214.60675587 -66.1796875 210.95703125 C-65.90260956 209.83544113 -65.90260956 209.83544113 -65.61993408 208.69119263 C-63.77076299 201.15762684 -62.1228822 193.58493422 -60.5 186 C-58.16664022 175.12275542 -55.65916631 164.30215701 -53 153.5 C-50.32038264 142.61452619 -47.79822967 131.70904467 -45.4375 120.75 C-24.36831199 23.30593327 -24.36831199 23.30593327 0 0 Z " fill="#FDFDFD" transform="translate(650,816)"/>
<path d="M0 0 C1.32 0.33 2.64 0.66 4 1 C4.22550537 2.03777588 4.45101074 3.07555176 4.68334961 4.14477539 C8.90627758 23.56036192 13.18408297 42.95984774 17.6875 62.3125 C20.47258285 74.28180435 23.16084309 86.26222068 25.69213867 98.28833008 C27.83382444 108.38903268 30.16065522 118.44370551 32.5 128.5 C35.34713337 140.73915852 38.1033141 152.98806303 40.69140625 165.28515625 C42.65306009 174.53601563 44.76797578 183.74769374 46.90921021 192.95822144 C49.84885308 205.60556454 52.78040543 218.25442183 55.5625 230.9375 C55.93955078 232.61392578 55.93955078 232.61392578 56.32421875 234.32421875 C57.55153112 239.99524834 58.46206094 245.1941038 58 251 C51.97256832 258.23291802 40.17386421 259.82104461 31.375 261.125 C30.42882812 261.28097656 29.48265625 261.43695312 28.5078125 261.59765625 C8.85702659 264.6460474 -11.27526591 265.69965247 -31.13208008 266.19458008 C-33.61042106 266.27398563 -36.08781036 266.39095637 -38.56274414 266.54321289 C-58.47846778 267.73922348 -58.47846778 267.73922348 -64.2567749 263.24456787 C-69.66654975 257.10202771 -73.78759524 248.59839856 -73.4140625 240.26171875 C-72.83300781 237.72021484 -72.83300781 237.72021484 -72 235 C-71.46586185 232.61074055 -70.93203372 230.22141178 -70.3984375 227.83203125 C-69.91178869 225.85157919 -69.41045185 223.87528345 -68.90649414 221.89916992 C-67.97866726 218.25647983 -67.07937579 214.60675587 -66.1796875 210.95703125 C-65.90260956 209.83544113 -65.90260956 209.83544113 -65.61993408 208.69119263 C-63.77076299 201.15762684 -62.1228822 193.58493422 -60.5 186 C-58.16664022 175.12275542 -55.65916631 164.30215701 -53 153.5 C-50.32038264 142.61452619 -47.79822967 131.70904467 -45.4375 120.75 C-24.36831199 23.30593327 -24.36831199 23.30593327 0 0 Z M-4 29 C-17.62404522 58.02356441 -25.19506838 88.33566469 -32.01953125 119.53198242 C-34.06742399 128.88399715 -36.21685626 138.20192316 -38.5 147.5 C-41.14964218 158.30273634 -43.61261075 169.13712838 -46 180 C-48.98783899 193.59390038 -52.14391798 207.13387428 -55.45703125 220.65234375 C-55.7092041 221.69374512 -55.96137695 222.73514648 -56.22119141 223.80810547 C-56.7681612 226.04982429 -57.32896444 228.2881912 -57.89990234 230.52392578 C-58.18430176 231.67231934 -58.46870117 232.82071289 -58.76171875 234.00390625 C-59.02299561 235.03459229 -59.28427246 236.06527832 -59.5534668 237.12719727 C-60.49854595 243.20743039 -58.07077749 246.94807574 -55 252 C-21.40322673 252.50521144 -21.40322673 252.50521144 12.125 250.6875 C12.79335876 250.6285556 13.46171753 250.56961121 14.15032959 250.50888062 C24.21319425 249.59579606 34.38274382 248.20575206 44 245 C43.42830124 236.79491502 41.79920192 228.96954573 39.96334839 220.97686768 C39.0472583 216.98851842 38.15033264 212.99583621 37.25 209.00390625 C36.96986305 207.76589264 36.96986305 207.76589264 36.68406677 206.50286865 C34.87644163 198.49854045 33.15259736 190.47699887 31.43582153 182.45278931 C28.64063011 169.39572421 25.72038384 156.37945882 22.64428711 143.38525391 C20.30545716 133.44903093 18.13633993 123.48138392 16 113.5 C13.34424459 101.09562088 10.57727102 88.72832259 7.65991211 76.38232422 C3.94671829 60.62441138 0.48374912 44.80991668 -3 29 C-3.33 29 -3.66 29 -4 29 Z " fill="#050505" transform="translate(650,816)"/>
</svg>
